HIERARCHY
ROOT Hips
{
 OFFSET 0.000000 0.000000 0.000000
 CHANNELS 6 Xposition Yposition Zposition Yrotation Xrotation Zrotation
 JOINT Chest
 {
  OFFSET 0.000000 9.585900 0.002600
  CHANNELS 3 Yrotation Xrotation Zrotation
  JOINT Chest2
  {
   OFFSET 0.000000 9.601200 -0.005300
   CHANNELS 3 Yrotation Xrotation Zrotation
   JOINT Chest3
   {
    OFFSET 0.000000 9.561800 0.000000
    CHANNELS 3 Yrotation Xrotation Zrotation
    JOINT Chest4
    {
     OFFSET 0.000000 9.552100 0.000000
     CHANNELS 3 Yrotation Xrotation Zrotation
     JOINT Neck
     {
      OFFSET 0.000000 14.453000 0.000000
      CHANNELS 3 Yrotation Xrotation Zrotation
      JOINT Head
      {
       OFFSET 0.000000 8.936500 -0.011300
       CHANNELS 3 Yrotation Xrotation Zrotation
       End Site
       {
        OFFSET 0.000000 17.073600 -0.006000
       }
      }
     }
     JOINT RightCollar
     {
      OFFSET -2.921100 9.558500 0.000000
      CHANNELS 3 Yrotation Xrotation Zrotation
      JOINT RightShoulder
      {
       OFFSET -13.519700 0.000000 0.000000
       CHANNELS 3 Yrotation Xrotation Zrotation
       JOINT RightElbow
       {
        OFFSET 0.000000 -29.696600 0.000000
        CHANNELS 3 Yrotation Xrotation Zrotation
        JOINT RightWrist
        {
         OFFSET 0.000000 -24.004700 0.000000
         CHANNELS 3 Yrotation Xrotation Zrotation
         End Site
         {
          OFFSET 0.000000 -17.728500 0.000000
         }
        }
       }
      }
     }
     JOINT LeftCollar
     {
      OFFSET 2.921100 9.558500 0.000000
      CHANNELS 3 Yrotation Xrotation Zrotation
      JOINT LeftShoulder
      {
       OFFSET 13.519700 0.000000 0.000000
       CHANNELS 3 Yrotation Xrotation Zrotation
       JOINT LeftElbow
       {
        OFFSET 0.000000 -29.696600 0.000000
        CHANNELS 3 Yrotation Xrotation Zrotation
        JOINT LeftWrist
        {
         OFFSET 0.000000 -24.004700 0.000000
         CHANNELS 3 Yrotation Xrotation Zrotation
         End Site
         {
          OFFSET 0.000000 -17.728500 0.000000
         }
        }
       }
      }
     }
    }
   }
  }
 }
 JOINT RightHip
 {
  OFFSET -7.771700 -0.012900 -0.001300
  CHANNELS 3 Yrotation Xrotation Zrotation
  JOINT RightKnee
  {
   OFFSET 0.000000 -40.869800 0.001200
   CHANNELS 3 Yrotation Xrotation Zrotation
   JOINT RightAnkle
   {
    OFFSET 0.000000 -39.717900 0.002100
    CHANNELS 3 Yrotation Xrotation Zrotation
    JOINT RightToe
    {
     OFFSET 0.000000 -4.965400 11.033500
     CHANNELS 3 Yrotation Xrotation Zrotation
     End Site
     {
      OFFSET 0.000000 -1.423100 5.872300
     }
    }
   }
  }
 }
 JOINT LeftHip
 {
  OFFSET 7.771700 -0.012900 -0.001300
  CHANNELS 3 Yrotation Xrotation Zrotation
  JOINT LeftKnee
  {
   OFFSET 0.000000 -40.869800 0.001200
   CHANNELS 3 Yrotation Xrotation Zrotation
   JOINT LeftAnkle
   {
    OFFSET 0.000000 -39.717900 0.002100
    CHANNELS 3 Yrotation Xrotation Zrotation
    JOINT LeftToe
    {
     OFFSET 0.000000 -4.965400 11.033500
     CHANNELS 3 Yrotation Xrotation Zrotation
     End Site
     {
      OFFSET 0.000000 -1.423100 5.872300
     }
    }
   }
  }
 }
}
MOTION
Frames: 8
Frame Time: 0.008333
0.000000 85.388000 0.000000 0.000000 -5.767877 0.000000 0.000000 11.653817 0.000000 0.000000 -5.885947 0.000000 0.000000 -0.000000 0.000000 0.000000 -0.000000 0.000000 0.000000 12.528835 0.000000 0.000000 0.711642 0.000000 0.000000 -0.000000 0.000000 0.000000 0.000000 -90.000000 0.000000 -2.309062 0.000000 0.000000 2.309062 0.000000 0.000000 -0.000000 0.000000 0.000000 -0.000000 90.000000 0.000000 -2.309062 0.000000 0.000000 2.309062 0.000000 0.000000 8.520406 0.000000 0.000000 1.905762 0.000000 -0.000000 -4.658285 0.000000 0.000000 -0.000000 0.000000 0.000000 8.520406 0.000000 0.000000 1.905762 0.000000 -0.000000 -4.658285 0.000000 0.000000 -0.000000 0.000000
7.875033 50.185646 45.042122 171.870126 -29.518261 -6.887022 7.275003 19.672717 7.135599 0.795480 2.731768 0.677076 1.312909 4.443178 1.122796 5.709049 17.035122 5.039646 -3.598205 15.577861 1.453950 -7.234245 -6.689747 4.013408 -0.700507 -4.500677 -4.691505 12.334213 -18.751624 -9.326229 128.145908 -67.930528 -139.757397 -3.284134 -8.512979 0.395826 -14.210061 -5.443205 -0.457757 -0.958139 -17.842230 2.747934 -127.892929 -50.353157 143.135737 30.767824 -23.243610 8.579265 -3.126573 -51.051930 12.037744 -93.803974 85.108643 -82.399883 -2.059321 -9.838967 -5.078735 -0.021968 0.538335 -0.045612 -10.507703 -54.673671 17.536624 -153.158272 80.654378 -159.715072 2.023949 -16.246107 6.984407 -0.459970 -0.809629 -0.204954
7.882900 50.175535 45.025226 171.843999 -29.394696 -6.946647 7.286173 19.512797 7.200457 0.781632 2.668369 0.677701 1.295176 4.353095 1.119709 5.693637 16.869682 5.068704 -3.574730 15.551571 1.434945 -7.185315 -6.741437 3.971497 -0.824288 -4.377709 -4.811760 12.127139 -18.368793 -9.194095 129.269916 -67.402538 -140.670536 -3.396933 -8.888046 -0.015225 -13.950598 -5.506447 -0.396430 -0.889874 -17.281491 2.908149 -128.578174 -49.722686 143.509408 30.840331 -24.246152 8.752122 -3.229260 -51.153608 12.152741 -93.805548 85.126095 -82.384997 -2.030086 -9.898237 -5.091669 -0.034683 0.585220 -0.058268 -10.649700 -54.793141 17.706523 -153.224598 80.605425 -159.786380 2.058441 -16.277671 6.994794 -0.476686 -0.807957 -0.223714
7.889897 50.162717 45.002369 171.824195 -29.256301 -6.999978 7.297144 19.358704 7.249801 0.765770 2.599401 0.682965 1.278671 4.266475 1.116226 5.680580 16.708274 5.095520 -3.553607 15.523713 1.422952 -7.143333 -6.795340 3.943485 -0.941053 -4.276039 -4.925368 11.909269 -17.940376 -9.072955 130.307701 -66.791249 -141.513146 -3.491860 -9.296470 -0.464643 -13.709179 -5.565489 -0.340556 -0.860788 -16.753895 3.142880 -129.345692 -49.190717 143.912836 30.960849 -25.228902 8.868462 -3.316129 -51.283595 12.250787 -94.077464 85.133145 -82.634725 -2.009292 -9.946097 -5.099885 -0.045595 0.626648 -0.054589 -10.790696 -54.926164 17.865419 -153.254151 80.547644 -159.819731 2.085436 -16.322783 7.003776 -0.463528 -0.795528 -0.236888
7.894596 50.144097 44.979168 171.829927 -29.068492 -7.048843 7.263590 19.149284 7.280611 0.762655 2.553957 0.678260 1.263674 4.183676 1.112153 5.670907 16.551487 5.119483 -3.535301 15.497274 1.417748 -7.109015 -6.845953 3.929062 -1.059582 -4.183313 -5.031390 11.680874 -17.485044 -8.967648 131.223332 -66.102735 -142.239332 -3.554989 -9.714379 -0.975646 -13.492611 -5.612378 -0.286244 -0.870689 -16.261405 3.442099 -130.178385 -48.754054 144.340877 31.132337 -26.211446 8.906932 -3.408030 -51.462206 12.321416 -94.443242 85.129033 -82.973574 -1.982407 -10.012123 -5.110765 -0.046674 0.666198 -0.060382 -11.001076 -55.104478 18.042480 -153.361207 80.503031 -159.956043 2.113612 -16.354951 7.015108 -0.485137 -0.783540 -0.256972
7.900091 50.123599 44.950586 171.841714 -28.881442 -7.094749 7.231493 18.941325 7.315937 0.756763 2.528380 0.664289 1.247390 4.090481 1.109142 5.661827 16.400765 5.139284 -3.519006 15.471296 1.415847 -7.079566 -6.895453 3.921420 -1.181323 -4.095878 -5.132665 11.443473 -17.017553 -8.878112 132.004975 -65.354823 -142.825504 -3.573809 -10.124157 -1.555072 -13.302778 -5.640124 -0.236608 -0.913842 -15.806659 3.797009 -131.041194 -48.407945 144.775597 31.325613 -27.214024 8.859139 -3.491701 -51.639430 12.377556 -94.939945 85.117027 -83.438899 -1.938442 -10.096201 -5.126073 -0.056918 0.714036 -0.062348 -11.159803 -55.290870 18.182160 -153.439152 80.448610 -160.041456 2.129120 -16.388265 7.034157 -0.488013 -0.770762 -0.269553
7.903636 50.106721 44.906321 171.910173 -28.765271 -7.135040 7.154714 18.828650 7.314746 0.754567 2.518187 0.660491 1.230636 3.974772 1.109772 5.650425 16.259358 5.155108 -3.505325 15.442859 1.415679 -7.055657 -6.949190 3.918096 -1.283432 -4.054998 -5.212872 11.180378 -16.507411 -8.811554 132.667399 -64.570862 -143.275609 -3.541057 -10.514041 -2.200868 -13.143022 -5.655871 -0.199175 -0.978063 -15.385118 4.202550 -131.876574 -48.121664 145.177310 31.510154 -28.233169 8.729517 -3.574005 -51.743112 12.375920 -95.945139 85.085841 -84.400156 -1.911686 -10.203375 -5.167455 -0.023803 0.749937 -0.040050 -11.321310 -55.402330 18.249276 -153.485550 80.378281 -160.102929 2.167538 -16.424018 7.028431 -0.485410 -0.767426 -0.267553
7.917712 50.091144 44.857469 171.875996 -28.689037 -7.176328 7.190079 18.737867 7.370396 0.745266 2.465454 0.662837 1.228630 3.909720 1.105103 5.638620 16.129259 5.168382 -3.496953 15.410048 1.418233 -7.042900 -7.010371 3.922139 -1.367016 -4.050975 -5.260295 10.898065 -15.968174 -8.776572 133.220701 -63.772151 -143.608682 -3.463085 -10.871721 -2.896915 -13.013074 -5.669779 -0.176253 -1.058921 -14.983972 4.651423 -132.618091 -47.855084 145.503710 31.667357 -29.250330 8.523931 -3.625678 -51.820725 12.462907 -96.686114 85.073316 -85.111761 -1.888260 -10.255296 -5.179547 -0.031159 0.758449 -0.040992 -11.465340 -55.474983 18.379732 -153.571792 80.269169 -160.190082 2.281305 -16.489393 7.000194 -0.523355 -0.742572 -0.264094
